<svg version="1.1" id="Layer_1" xmlns="http://www.w3.org/2000/svg" xmlns:xlink="http://www.w3.org/1999/xlink" x="0px" y="0px"
	 width="217.675px" height="198.183px" viewBox="0 0 217.675 198.183" enable-background="new 0 0 217.675 198.183"
	 xml:space="preserve">
<g>
	<path fill="#06A1E4" d="M23.474,157.396H11.673l-1.844,5.407H0l13.077-33.293h8.967l13.365,33.293H25.308L23.474,157.396z
		 M17.555,139.901l-3.647,10.316h7.328L17.555,139.901z"/>
	<path fill="#06A1E4" d="M40.995,129.51h9.294v33.293h-9.294V129.51z"/>
	<path fill="#06A1E4" d="M71.616,152.616H68.29v10.187h-9.172V129.51h14.43c7.178,0,12.381,4.822,12.381,11.782
		c0,4.086-1.996,7.434-5.285,9.402l6.611,12.108H77.018L71.616,152.616z M68.29,144.89h4.189c2.564,0,4.04-1.544,4.04-3.625
		s-1.476-3.604-4.04-3.604H68.29V144.89z"/>
	<path fill="#06A1E4" d="M122.318,163.646c-10.133,0-17.701-7.502-17.701-17.461c0-10.015,7.568-17.517,17.701-17.517
		c8.726,0,15.483,5.76,16.837,14.201h-9.293c-1.144-3.414-4.02-5.631-7.523-5.631c-4.715,0-8.172,3.79-8.172,8.945
		c0,5.136,3.457,8.871,8.172,8.871c3.694,0,6.598-2.407,7.53-6.106h9.382C137.985,157.702,131.187,163.645,122.318,163.646
		L122.318,163.646z"/>
	<path fill="#06A1E4" d="M162.621,163.646c-10.703,0-18.34-7.313-18.34-17.489c0-10.175,7.637-17.488,18.34-17.488
		c10.676,0,18.285,7.286,18.285,17.488C180.906,156.359,173.297,163.645,162.621,163.646L162.621,163.646z M171.356,146.157
		c0-5.21-3.668-8.953-8.735-8.953s-8.79,3.771-8.79,8.953s3.723,8.953,8.79,8.953S171.356,151.367,171.356,146.157z"/>
	<path fill="#06A1E4" d="M217.675,129.51v33.293h-7.585l-13.227-18.067v18.067h-8.889V129.51h8.028l12.784,17.467V129.51H217.675z"
		/>
	<path fill="#8495A0" d="M1.023,186.257c0-6.84,5.169-11.964,12.091-11.964c5.959,0,10.576,3.934,11.5,9.699h-6.348
		c-0.781-2.332-2.746-3.847-5.139-3.847c-3.221,0-5.582,2.59-5.582,6.11c0,3.508,2.361,6.06,5.582,6.06
		c2.523,0,4.507-1.645,5.145-4.171h6.406c-0.863,5.979-5.508,10.038-11.564,10.038C6.192,198.183,1.023,193.059,1.023,186.257z"/>
	<path fill="#8495A0" d="M33.275,186.237c0-6.949,5.217-11.944,12.527-11.944c7.291,0,12.489,4.976,12.489,11.944
		s-5.198,11.945-12.489,11.945C38.492,198.183,33.275,193.188,33.275,186.237z M51.769,186.238c0-3.559-2.505-6.115-5.966-6.115
		c-3.462,0-6.005,2.575-6.005,6.115s2.543,6.115,6.005,6.115C49.264,192.354,51.769,189.797,51.769,186.238z"/>
	<path fill="#8495A0" d="M90.541,197.607l-1.774-13.096l-6.031,13.133h-1.851l-6.028-13.128l-1.749,13.091h-6.349l3.439-22.74h6.256
		l5.355,12.374l5.39-12.374h6.256l3.407,22.74H90.541z"/>
	<path fill="#8495A0" d="M124.85,183.083c0,4.769-3.591,8.244-8.425,8.244h-3.403v6.28h-6.278v-22.74h9.682
		C121.259,174.867,124.85,178.314,124.85,183.083z M118.409,183.098c0-1.617-1.087-2.76-2.735-2.76h-2.652v5.519h2.652
		C117.322,185.856,118.409,184.714,118.409,183.098z"/>
	<path fill="#8495A0" d="M146.461,193.914H138.4l-1.259,3.693h-6.714l8.933-22.74h6.124l9.129,22.74h-6.899L146.461,193.914z
		 M142.418,181.965l-2.491,7.047h5.006L142.418,181.965z"/>
	<path fill="#8495A0" d="M183.877,174.867v22.74h-5.182l-9.034-12.341v12.341h-6.07v-22.74h5.483l8.731,11.931v-11.931H183.877z"/>
	<path fill="#8495A0" d="M207.407,188.713v8.895h-6.381v-8.91l-7.89-13.83h6.948l4.157,8.218l4.157-8.218h6.948L207.407,188.713z"/>
</g>
<g>
	<g>
		<g>
			<path fill="#06A1E4" d="M141.546,66.918c-1.533,0.653-3.297,1.176-5.277,1.468c-4.945,8.219-13.42,14.08-23.313,15.476
				l-1.09-25.089c2.621-1.286,4.43-3.972,4.43-7.087c0-4.361-3.535-7.896-7.896-7.896s-7.896,3.535-7.896,7.896
				c0,3.115,1.809,5.801,4.43,7.087L103.7,87.134l-0.873,20.077h-4.9v5.652h4.654h11.637h4.654v-5.652h-4.9l-0.842-19.359
				C125.767,86.205,136.394,78.082,141.546,66.918z"/>
		</g>
	</g>
	<path fill="#06A1E4" d="M101.349,19.965c2.271-0.505,4.629-0.779,7.051-0.779c8.916,0,17.002,3.609,22.881,9.442
		c1.15-0.196,2.332-0.327,3.566-0.327c0.525,0,1.055,0.018,1.582,0.05c-6.699-8.032-16.775-13.155-28.029-13.155
		c-3.596,0-7.068,0.53-10.354,1.504c0.646,0.512,1.289,1.077,1.926,1.712C100.472,18.913,100.927,19.433,101.349,19.965z"/>
	<path fill="#06A1E4" d="M72.169,47.406c-0.166,1.404-0.26,2.83-0.26,4.279c0,3.3,0.447,6.494,1.273,9.536
		c0.252-0.28,0.516-0.562,0.793-0.839c0.807-0.806,1.674-1.512,2.59-2.14c-0.438-2.118-0.666-4.312-0.666-6.558
		c0-0.648,0.023-1.293,0.063-1.932C74.624,49.111,73.353,48.33,72.169,47.406z"/>
	<g>
		<path fill="#06A1E4" d="M134.847,33.62c-8.648,0-14.943,6.857-15.666,14.125l15.549-1.817l0.619,5.283l-15.484,1.811
			c1.697,4.834,6.25,10.302,13.215,10.302c8.977,0,12.186-6.65,17.063-6.65c5.652,0,11.969,5.099,11.969,8.978
			C162.11,44.481,146.815,33.62,134.847,33.62z"/>
		<path fill="#06A1E4" d="M94.052,43.733l-8.344-6.595l3.299-4.173l8.709,6.883c2.637-4.527,3.809-12.358-1.506-17.675
			c-6.348-6.347-13.318-3.914-16.768-7.362C75.446,10.813,74.585,2.743,77.327,0c-14.969,14.967-11.834,33.463-3.371,41.927
			C79.735,47.705,88.353,47.66,94.052,43.733z"/>
		<path fill="#06A1E4" d="M99.718,66.956l-5.865,7.42l-4.174-3.299l6.371-8.058c-4.398-2.896-12.744-4.445-18.313,1.126
			c-6.348,6.347-3.914,13.317-7.363,16.766c-3.996,3.997-12.068,4.858-14.811,2.115c14.967,14.969,33.463,11.835,41.926,3.371
			C103.052,80.836,103.216,72.646,99.718,66.956z"/>
	</g>
</g>
</svg>
