<?xml version="1.0" encoding="utf-8"?>
<!-- Generator: Adobe Illustrator 16.0.3, SVG Export Plug-In . SVG Version: 6.00 Build 0)  -->
<!DOCTYPE svg PUBLIC "-//W3C//DTD SVG 1.1//EN" "http://www.w3.org/Graphics/SVG/1.1/DTD/svg11.dtd">
<svg version="1.1" id="Layer_1" focusable="false" xmlns="http://www.w3.org/2000/svg" xmlns:xlink="http://www.w3.org/1999/xlink"
	 x="0px" y="0px" width="30px" height="30px" viewBox="0 0 30 30" enable-background="new 0 0 30 30" xml:space="preserve">
<g>
	<path d="M8.299,18.469V9.763c0-0.458-0.372-0.83-0.83-0.83s-0.83,0.372-0.83,0.83v8.706c-1.296,0.459-1.976,1.881-1.518,3.178
		c0.458,1.297,1.881,1.977,3.177,1.518c1.296-0.459,1.976-1.879,1.518-3.176C9.566,19.279,9.008,18.721,8.299,18.469z M13.278,7.532
		c0-3.208-2.601-5.809-5.809-5.809S1.661,4.324,1.661,7.532v8.636c-1.021,1.275-1.66,2.877-1.66,4.641
		c0,4.125,3.344,7.469,7.468,7.469s7.468-3.344,7.468-7.469c0-1.764-0.638-3.365-1.66-4.641V7.532z M7.469,25.787
		c-2.748-0.002-4.975-2.23-4.979-4.979c0-1.4,0.606-2.453,1.115-3.086l0.544-0.68V7.532c0-1.833,1.486-3.319,3.319-3.319
		s3.319,1.486,3.319,3.319v9.505l0.544,0.68c0.509,0.639,1.115,1.691,1.115,3.092C12.444,23.557,10.217,25.785,7.469,25.787z"/>
	<path d="M26.129,6.5c-0.906-0.851-2.084-1.316-3.335-1.315c-2.249,0.002-4.191,1.544-4.727,3.684
		c-0.041,0.156-0.179,0.267-0.34,0.267h-1.664c-0.218,0-0.383-0.197-0.342-0.412c0.627-3.336,3.558-5.86,7.076-5.86
		c1.93,0,3.681,0.758,4.976,1.994l1.037-1.037c0.438-0.439,1.188-0.128,1.188,0.493v3.893c0,0.386-0.312,0.697-0.696,0.697H25.41
		c-0.621,0-0.933-0.751-0.494-1.19L26.129,6.5z M16.294,11.226h3.893c0.62,0,0.931,0.75,0.493,1.189l-1.213,1.212
		c0.908,0.851,2.086,1.315,3.336,1.315c2.246-0.001,4.19-1.543,4.727-3.683c0.04-0.158,0.179-0.268,0.339-0.268h1.664
		c0.218,0,0.383,0.198,0.343,0.412c-0.628,3.337-3.558,5.863-7.077,5.863c-1.93,0-3.682-0.76-4.976-1.996l-1.035,1.039
		c-0.44,0.438-1.191,0.125-1.191-0.494v-3.894C15.596,11.538,15.907,11.226,16.294,11.226z"/>
</g>
</svg>
