<?xml version="1.0" encoding="utf-8"?>
<!-- Generator: Adobe Illustrator 16.0.3, SVG Export Plug-In . SVG Version: 6.00 Build 0)  -->
<!DOCTYPE svg PUBLIC "-//W3C//DTD SVG 1.1//EN" "http://www.w3.org/Graphics/SVG/1.1/DTD/svg11.dtd">
<svg version="1.1" id="Layer_1" focusable="false" xmlns="http://www.w3.org/2000/svg" xmlns:xlink="http://www.w3.org/1999/xlink"
	 x="0px" y="0px" width="30px" height="30px" viewBox="0 0 30 30" enable-background="new 0 0 30 30" xml:space="preserve">
<path d="M28.334,1.666H1.667C0.746,1.666,0,2.413,0,3.333v8.333c0,0.921,0.746,1.667,1.667,1.667h26.667
	c0.92,0,1.666-0.746,1.666-1.667V3.333C30,2.413,29.254,1.666,28.334,1.666z M26.666,10H3.333V8.333h23.333V10z M11.25,23.75
	c0,1.15-0.933,2.084-2.083,2.084H8.843c-1.042,0-1.989-0.724-2.15-1.751c-0.15-0.959,0.36-1.782,1.137-2.16
	c0.298-0.145,0.503-0.43,0.503-0.762v-0.918c-0.001-0.463-0.377-0.838-0.84-0.837c-0.094,0-0.188,0.016-0.276,0.047
	c-2.031,0.712-3.288,2.748-3.015,4.883c0.29,2.321,2.388,3.998,4.728,3.998h0.236c2.531,0,4.583-2.053,4.583-4.584V15h-2.5V23.75z
	 M22.782,17.787c-0.437-0.154-0.915,0.076-1.068,0.514c-0.031,0.089-0.047,0.182-0.048,0.275v0.918c0,0.332,0.205,0.617,0.504,0.762
	c0.777,0.378,1.287,1.201,1.137,2.16c-0.16,1.027-1.109,1.75-2.149,1.75h-0.323c-1.151,0-2.084-0.932-2.084-2.082V15h-2.5v7.084
	c0,2.531,2.053,4.582,4.584,4.582h0.235c2.339,0,4.438-1.676,4.728-3.997C26.07,20.533,24.813,18.498,22.782,17.787z"/>
</svg>
