<?xml version="1.0" encoding="utf-8"?>
<!-- Generator: Adobe Illustrator 16.0.3, SVG Export Plug-In . SVG Version: 6.00 Build 0)  -->
<!DOCTYPE svg PUBLIC "-//W3C//DTD SVG 1.1//EN" "http://www.w3.org/Graphics/SVG/1.1/DTD/svg11.dtd">
<svg version="1.1" id="Layer_1" focusable="false" xmlns="http://www.w3.org/2000/svg" xmlns:xlink="http://www.w3.org/1999/xlink"
	 x="0px" y="0px" width="30px" height="30px" viewBox="0 0 30 30" enable-background="new 0 0 30 30" xml:space="preserve">
<path d="M16.045,17.606c-0.656-0.882-1.472-1.772-2.395-2.606c-2.368,2.138-4.05,4.922-4.05,6.6c0,2.981,2.418,5.4,5.4,5.4
	s5.4-2.419,5.4-5.4c0-1.246-1.252-3.824-3-5.399C16.898,16.65,16.443,17.128,16.045,17.606z M16.771,24.023
	C16.275,24.385,15.661,24.6,15,24.6c-1.655,0-3-1.144-3-3c0-0.923,0.558-1.738,1.669-3.131c0.159,0.192,2.264,3.005,2.264,3.005
	l1.346-1.604c0.094,0.164,0.183,0.323,0.258,0.479C18.164,21.596,17.901,23.198,16.771,24.023z M29.25,3H0.75
	C0.337,3,0,3.337,0,3.75V9c0,0.413,0.337,0.75,0.75,0.75H1.5v16.125C1.5,26.498,2.001,27,2.625,27h3.75
	C6.999,27,7.5,26.498,7.5,25.875v-4.528c0-3.923,2.854-7.439,6.76-7.814c0.248-0.023,0.496-0.038,0.74-0.038
	c4.144,0,7.5,3.356,7.5,7.5v4.875c0,0.624,0.502,1.125,1.125,1.125h3.75c0.623,0,1.125-0.501,1.125-1.125V9.75h0.75
	C29.662,9.75,30,9.413,30,9V3.75C30,3.337,29.662,3,29.25,3z M26.25,24.75h-1.5V21c0-5.377-4.373-9.75-9.75-9.75
	c-0.314,0-0.633,0.014-0.951,0.047C9.117,11.766,5.25,16.172,5.25,21.323v3.427h-1.5v-15h22.5V24.75z M27.75,7.5H2.25V5.25h25.5V7.5
	z"/>
</svg>
