<?xml version="1.0" encoding="utf-8"?>
<!-- Generator: Adobe Illustrator 16.0.3, SVG Export Plug-In . SVG Version: 6.00 Build 0)  -->
<!DOCTYPE svg PUBLIC "-//W3C//DTD SVG 1.1//EN" "http://www.w3.org/Graphics/SVG/1.1/DTD/svg11.dtd">
<svg version="1.1" id="Layer_1" focusable="false" xmlns="http://www.w3.org/2000/svg" xmlns:xlink="http://www.w3.org/1999/xlink"
	 x="0px" y="0px" width="30px" height="30px" viewBox="0 0 30 30" enable-background="new 0 0 30 30" xml:space="preserve">
<path d="M13.126,5.629v2.859l1.74,1.74c-0.398-2.039,0.205-4.119,1.67-5.584c1.189-1.189,2.766-1.828,4.395-1.828h0.07l-3.363,3.352
	l0.885,5.309l5.309,0.885l3.357-3.357c0.018,1.658-0.621,3.252-1.828,4.459c-0.545,0.545-1.184,0.961-1.863,1.266
	c0.105,0.094,0.229,0.17,0.328,0.27l1.799,1.799c0.615-0.369,1.201-0.814,1.723-1.342c2.232-2.232,3.146-5.525,2.385-8.59
	c-0.176-0.715-0.727-1.277-1.43-1.477c-0.715-0.199-1.477,0.006-1.992,0.527L22.87,9.35l-1.898-0.316l-0.316-1.898l3.434-3.434
	C24.61,3.18,24.81,2.418,24.61,1.709C24.417,1,23.849,0.45,23.134,0.274c-3.117-0.773-6.322,0.117-8.59,2.379
	c-0.598,0.598-1.084,1.271-1.482,1.986l0.064,0.047V5.629z M6.212,26.601c-0.75,0.75-2.068,0.75-2.818,0
	c-0.375-0.375-0.586-0.879-0.586-1.406c0-0.533,0.205-1.031,0.586-1.406l7.875-7.875l-1.986-1.987l-7.875,7.87
	c-0.908,0.908-1.406,2.115-1.406,3.398s0.498,2.49,1.406,3.398s2.115,1.406,3.398,1.406s2.49-0.498,3.398-1.406l5.912-5.912
	c-0.568-0.926-0.891-1.98-0.92-3.053L6.212,26.601z M29.362,23.185l-6.861-6.861c-1.354-1.354-3.375-1.618-5.004-0.814l-6.246-6.247
	V5.624l-7.5-5.625l-3.75,3.75l5.625,7.5h3.639l6.246,6.247c-0.797,1.629-0.539,3.65,0.814,5.004l6.861,6.861
	c0.855,0.855,2.238,0.855,3.088,0l3.088-3.088C30.212,25.417,30.212,24.034,29.362,23.185z"/>
</svg>
