<?xml version="1.0" encoding="utf-8"?>
<!-- Generator: Adobe Illustrator 16.0.3, SVG Export Plug-In . SVG Version: 6.00 Build 0)  -->
<!DOCTYPE svg PUBLIC "-//W3C//DTD SVG 1.1//EN" "http://www.w3.org/Graphics/SVG/1.1/DTD/svg11.dtd">
<svg version="1.1" id="Layer_1" focusable="false" xmlns="http://www.w3.org/2000/svg" xmlns:xlink="http://www.w3.org/1999/xlink"
	 x="0px" y="0px" width="30px" height="30px" viewBox="0 0 30 30" enable-background="new 0 0 30 30" xml:space="preserve">
<path d="M23.761,28.075h-1.416l-0.176-2.686l-3.036-3.577l0.408,6.263h-2.542l0.528-8.153l-1.569-1.849
	c-0.232-0.287-0.568-0.472-0.935-0.513l-0.147-0.017l-0.683,10.531h-1.417c-0.815,0-1.561,0.462-1.926,1.191
	c-0.115,0.23-0.021,0.512,0.209,0.627c0.063,0.031,0.134,0.049,0.205,0.049h14.008c0.258,0,0.467-0.209,0.467-0.467
	c0-0.072-0.017-0.145-0.049-0.209C25.325,28.536,24.578,28.075,23.761,28.075z M26.597,24.911L21.44,14.269
	c-0.346-0.794-0.361-1.692-0.043-2.497L25.675,1.32c0.188-0.474-0.044-1.01-0.518-1.197c-0.393-0.156-0.84-0.025-1.088,0.317
	l-6.66,9.144c-0.508,0.702-1.273,1.172-2.129,1.308L4.104,12.663c-0.455,0.072-0.787,0.47-0.777,0.931v0.014
	c0.011,0.463,0.363,0.847,0.823,0.896l11.074,1.199c0.861,0.093,1.65,0.525,2.191,1.201l7.605,8.96
	c0.289,0.361,0.803,0.451,1.198,0.211l0.011-0.007C26.624,25.827,26.78,25.334,26.597,24.911z M18.269,14.534
	c-0.773,0-1.4-0.627-1.4-1.4s0.627-1.401,1.4-1.401s1.4,0.628,1.4,1.401S19.042,14.534,18.269,14.534z"/>
</svg>
